# Blender v2.78 (sub 0) OBJ File: 'torus.blend'
# www.blender.org
mtllib TunnelSection.mtl
o Cylinder_Cylinder.002
v 0.000000 -0.500000 -2.000000
v 0.000000 0.500000 -2.000000
v 0.517638 0.500000 -1.931852
v 0.517638 -0.500000 -1.931852
v 1.414214 -0.500000 -1.414214
v 1.414214 0.500000 -1.414214
v 1.732051 0.500000 -1.000000
v 1.732051 -0.500000 -1.000000
v 1.931852 0.500000 -0.517638
v 1.931852 -0.500000 -0.517638
v 1.931852 -0.500000 0.517638
v 1.931852 0.500000 0.517638
v 1.732051 0.500000 0.999999
v 1.732051 -0.500000 0.999999
v 1.414214 0.500000 1.414213
v 1.414214 -0.500000 1.414213
v 0.517639 -0.500000 1.931851
v 0.517639 0.500000 1.931851
v 0.000001 0.500000 2.000000
v 0.000001 -0.500000 2.000000
v -0.517637 0.500000 1.931852
v -0.517637 -0.500000 1.931852
v -1.414213 -0.500000 1.414214
v -1.414213 0.500000 1.414214
v -1.732050 0.500000 1.000000
v -1.732050 -0.500000 1.000000
v -1.931851 0.500000 0.517639
v -1.931851 -0.500000 0.517639
v -1.931852 -0.500000 -0.517637
v -1.931852 0.500000 -0.517637
v -1.732051 0.500000 -0.999999
v -1.732051 -0.500000 -0.999999
v -1.414214 0.500000 -1.414213
v -1.414214 -0.500000 -1.414213
v -0.517640 -0.500000 -1.931852
v -0.517640 0.500000 -1.931852
v 0.000000 -0.500000 -1.965000
v 0.508580 -0.500000 -1.898045
v 0.508580 0.500000 -1.898045
v 0.000000 0.500000 -1.965000
v 1.389466 -0.500000 -1.389466
v 1.701740 -0.500000 -0.982501
v 1.701740 0.500000 -0.982501
v 1.389466 0.500000 -1.389466
v 1.898045 -0.500000 -0.508581
v 1.898045 0.500000 -0.508581
v 1.898045 -0.500000 0.508580
v 1.701740 -0.500000 0.982500
v 1.701740 0.500000 0.982500
v 1.898045 0.500000 0.508580
v 1.389466 -0.500000 1.389465
v 1.389466 0.500000 1.389465
v 0.508581 -0.500000 1.898044
v 0.000001 -0.500000 1.965000
v 0.000001 0.500000 1.965000
v 0.508581 0.500000 1.898044
v -0.508579 -0.500000 1.898045
v -0.508579 0.500000 1.898045
v -1.389465 -0.500000 1.389466
v -1.701740 -0.500000 0.982501
v -1.701740 0.500000 0.982501
v -1.389465 0.500000 1.389466
v -1.898044 -0.500000 0.508581
v -1.898044 0.500000 0.508581
v -1.898045 -0.500000 -0.508579
v -1.701741 -0.500000 -0.982500
v -1.701741 0.500000 -0.982500
v -1.898045 0.500000 -0.508579
v -1.389467 -0.500000 -1.389465
v -1.389467 0.500000 -1.389465
v -0.508582 -0.500000 -1.898045
v -0.508582 0.500000 -1.898045
v 1.000000 0.500000 -1.732051
v 1.000000 -0.500000 -1.732051
v 2.000000 0.500000 0.000000
v 2.000000 -0.500000 -0.000000
v 1.000000 0.500000 1.732050
v 1.000000 -0.500000 1.732050
v -0.999999 0.500000 1.732051
v -0.999999 -0.500000 1.732051
v -2.000000 0.500000 0.000001
v -2.000000 -0.500000 0.000001
v -1.000001 0.500000 -1.732050
v -1.000001 -0.500000 -1.732050
v 0.982501 -0.500000 -1.701740
v 0.982501 0.500000 -1.701740
v 1.965000 -0.500000 -0.000000
v 1.965000 0.500000 0.000000
v 0.982501 -0.500000 1.701739
v 0.982501 0.500000 1.701739
v -0.982500 -0.500000 1.701740
v -0.982500 0.500000 1.701740
v -1.965000 -0.500000 0.000001
v -1.965000 0.500000 0.000001
v -0.982502 -0.500000 -1.701740
v -0.982502 0.500000 -1.701740
vn 0.1305 0.0000 -0.9914
vn 0.7934 0.0000 -0.6088
vn 0.9239 0.0000 -0.3827
vn 0.9239 -0.0000 0.3827
vn 0.7934 -0.0000 0.6088
vn 0.1305 -0.0000 0.9914
vn -0.1305 -0.0000 0.9914
vn -0.7934 -0.0000 0.6088
vn -0.9239 -0.0000 0.3827
vn -0.9239 0.0000 -0.3827
vn -0.7934 0.0000 -0.6088
vn -0.1305 0.0000 -0.9914
vn 0.0000 -1.0000 -0.0000
vn 0.0000 1.0000 0.0000
vn 0.3827 0.0000 -0.9239
vn 0.6088 0.0000 -0.7934
vn 0.9914 0.0000 -0.1305
vn 0.9914 -0.0000 0.1305
vn 0.6088 -0.0000 0.7934
vn 0.3827 -0.0000 0.9239
vn -0.3827 -0.0000 0.9239
vn -0.6088 -0.0000 0.7934
vn -0.9914 0.0000 0.1305
vn -0.9914 0.0000 -0.1305
vn -0.6088 0.0000 -0.7934
vn -0.3827 0.0000 -0.9239
usemtl White
s 1
f 1//1 2//1 3//1 4//1
f 5//2 6//2 7//2 8//2
f 8//3 7//3 9//3 10//3
f 11//4 12//4 13//4 14//4
f 14//5 13//5 15//5 16//5
f 17//6 18//6 19//6 20//6
f 20//7 19//7 21//7 22//7
f 23//8 24//8 25//8 26//8
f 26//9 25//9 27//9 28//9
f 29//10 30//10 31//10 32//10
f 32//11 31//11 33//11 34//11
f 35//12 36//12 2//12 1//12
f 37//7 38//7 39//7 40//7
f 41//8 42//8 43//8 44//8
f 42//9 45//9 46//9 43//9
f 47//10 48//10 49//10 50//10
f 48//11 51//11 52//11 49//11
f 53//12 54//12 55//12 56//12
f 54//1 57//1 58//1 55//1
f 59//2 60//2 61//2 62//2
f 60//3 63//3 64//3 61//3
f 65//4 66//4 67//4 68//4
f 66//5 69//5 70//5 67//5
f 71//6 37//6 40//6 72//6
f 1//13 4//13 38//13 37//13
f 3//14 2//14 40//14 39//14
f 5//13 8//13 42//13 41//13
f 7//14 6//14 44//14 43//14
f 8//13 10//13 45//13 42//13
f 9//14 7//14 43//14 46//14
f 11//13 14//13 48//13 47//13
f 13//14 12//14 50//14 49//14
f 14//13 16//13 51//13 48//13
f 15//14 13//14 49//14 52//14
f 17//13 20//13 54//13 53//13
f 19//14 18//14 56//14 55//14
f 20//13 22//13 57//13 54//13
f 21//14 19//14 55//14 58//14
f 23//13 26//13 60//13 59//13
f 25//14 24//14 62//14 61//14
f 26//13 28//13 63//13 60//13
f 27//14 25//14 61//14 64//14
f 29//13 32//13 66//13 65//13
f 31//14 30//14 68//14 67//14
f 32//13 34//13 69//13 66//13
f 33//14 31//14 67//14 70//14
f 35//13 1//13 37//13 71//13
f 2//14 36//14 72//14 40//14
usemtl Grey
f 4//15 3//15 73//15 74//15
f 74//16 73//16 6//16 5//16
f 10//17 9//17 75//17 76//17
f 76//18 75//18 12//18 11//18
f 16//19 15//19 77//19 78//19
f 78//20 77//20 18//20 17//20
f 22//21 21//21 79//21 80//21
f 80//22 79//22 24//22 23//22
f 28//23 27//23 81//23 82//23
f 82//24 81//24 30//24 29//24
f 34//25 33//25 83//25 84//25
f 84//26 83//26 36//26 35//26
f 38//21 85//21 86//21 39//21
f 85//22 41//22 44//22 86//22
f 45//23 87//23 88//23 46//23
f 87//24 47//24 50//24 88//24
f 51//25 89//25 90//25 52//25
f 89//26 53//26 56//26 90//26
f 57//15 91//15 92//15 58//15
f 91//16 59//16 62//16 92//16
f 63//17 93//17 94//17 64//17
f 93//18 65//18 68//18 94//18
f 69//19 95//19 96//19 70//19
f 95//20 71//20 72//20 96//20
f 4//13 74//13 85//13 38//13
f 73//14 3//14 39//14 86//14
f 74//13 5//13 41//13 85//13
f 6//14 73//14 86//14 44//14
f 10//13 76//13 87//13 45//13
f 75//14 9//14 46//14 88//14
f 76//13 11//13 47//13 87//13
f 12//14 75//14 88//14 50//14
f 16//13 78//13 89//13 51//13
f 77//14 15//14 52//14 90//14
f 78//13 17//13 53//13 89//13
f 18//14 77//14 90//14 56//14
f 22//13 80//13 91//13 57//13
f 79//14 21//14 58//14 92//14
f 80//13 23//13 59//13 91//13
f 24//14 79//14 92//14 62//14
f 28//13 82//13 93//13 63//13
f 81//14 27//14 64//14 94//14
f 82//13 29//13 65//13 93//13
f 30//14 81//14 94//14 68//14
f 34//13 84//13 95//13 69//13
f 83//14 33//14 70//14 96//14
f 84//13 35//13 71//13 95//13
f 36//14 83//14 96//14 72//14
